# xmcd CD database file
#
# Track frame offsets:
#	150
#	16329
#	31908
#	46012
#	65539
#	82143
#	95095
#	114795
#	129473
#	146652
#
# Disc length: 2111 seconds
#
# Revision: 0
# Processed by: cddbd v1.5.2PL0 Copyright (c) Steve Scherf et al.
# Submitted via: CDex 1.70beta2
#
DISCID=7f083d0a
DTITLE=Big Jerry - I Got the Blues for You
DYEAR=2006
DGENRE=Blues
TTITLE0=I Got the Blues for You
TTITLE1=She Made Me Feel Good
TTITLE2=Please Come Home
TTITLE3=She's A Trip
TTITLE4=Memphis in May
TTITLE5=Slow Down Baby
TTITLE6=Big Legged Woman
TTITLE7=Foot Stompin' Time
TTITLE8=Ready for the Weekend
TTITLE9=Blues Cruzin'
EXTD=YEAR: 2006
EXTT0=
EXTT1=
EXTT2=
EXTT3=
EXTT4=
EXTT5=
EXTT6=
EXTT7=
EXTT8=
EXTT9=
PLAYORDER=
